<svg width="24" height="24" viewBox="0 0 24 24" fill="none" xmlns="http://www.w3.org/2000/svg">
<path d="M14.348 4.56614C14.1446 3.65106 13.333 3 12.3956 3H11.6043C10.6669 3 9.85527 3.65106 9.65192 4.56614L9.44898 5.47935C8.78786 5.73819 8.1757 6.09467 7.63025 6.53105L6.73606 6.24961C5.84191 5.96818 4.87226 6.34554 4.40356 7.15735L4.0079 7.84264C3.53921 8.65445 3.69723 9.68287 4.38803 10.3165L5.07823 10.9496C5.02667 11.2922 4.99995 11.643 4.99995 12C4.99995 12.357 5.02667 12.7078 5.07823 13.0504L4.38802 13.6835C3.69722 14.3171 3.53919 15.3455 4.00789 16.1574L4.40355 16.8426C4.87225 17.6545 5.8419 18.0318 6.73605 17.7504L7.63024 17.4689C8.17569 17.9053 8.78785 18.2618 9.44898 18.5206L9.65192 19.4339C9.85527 20.3489 10.6669 21 11.6043 21H12.3956C13.333 21 14.1446 20.3489 14.348 19.4339L14.5509 18.5206C15.212 18.2618 15.8242 17.9053 16.3697 17.4689L17.2639 17.7504C18.158 18.0318 19.1277 17.6545 19.5964 16.8426L19.992 16.1573C20.4607 15.3455 20.3027 14.3171 19.6119 13.6835L18.9217 13.0504C18.9732 12.7077 18.9999 12.357 18.9999 12C18.9999 11.643 18.9732 11.2922 18.9217 10.9496L19.6119 10.3165C20.3027 9.68288 20.4607 8.65446 19.992 7.84265L19.5963 7.15735C19.1276 6.34554 18.158 5.96818 17.2638 6.24962L16.3697 6.53106C15.8242 6.09467 15.212 5.73819 14.5509 5.47935L14.348 4.56614Z" stroke="#888888" stroke-width="1.4" stroke-linecap="round" stroke-linejoin="round"/>
<path d="M11 12C11 12.5523 11.4477 13 12 13C12.5523 13 13 12.5523 13 12C13 11.4477 12.5523 11 12 11C11.4477 11 11 11.4477 11 12Z" stroke="currentColor" stroke-width="1.4" stroke-linecap="round" stroke-linejoin="round"/>
</svg>
