<svg width="24" height="24" viewBox="0 0 24 24" fill="none" xmlns="http://www.w3.org/2000/svg">
<path d="M4 11.6211V18C4 19.1046 4.89543 20 6 20H18C19.1046 20 20 19.1046 20 18V11.6211M16.5 9.75C16.5 10.9926 17.5074 12 18.75 12C19.906 12 20.8584 11.1282 20.9856 10.0062C21.0048 9.83688 20.9782 9.66657 20.9352 9.50173L19.89 5.49516C19.6603 4.6145 18.8649 4 17.9548 4H6.04519C5.13506 4 4.3397 4.6145 4.10996 5.49516L3.06477 9.50173C3.02176 9.66657 2.99524 9.83688 3.01442 10.0062C3.14157 11.1282 4.09397 12 5.25 12C6.49264 12 7.5 10.9926 7.5 9.75M16.5 9.75C16.5 10.9926 15.4926 12 14.25 12C13.0074 12 12 10.9926 12 9.75M16.5 9.75L16 4M12 9.75C12 10.9926 10.9926 12 9.75 12C8.50736 12 7.5 10.9926 7.5 9.75M12 9.75V4M7.5 9.75L8 4" stroke="currentColor" stroke-width="1.4" stroke-linecap="round" stroke-linejoin="round"/>
</svg>
