<svg width="32" height="31" viewBox="0 0 32 31" fill="none" xmlns="http://www.w3.org/2000/svg">
<path d="M20.6905 10.9219L11.3093 20.079M20.6905 20.0797L11.3093 10.9225" stroke="currentColor" stroke-width="2" stroke-linecap="round" stroke-linejoin="round"/>
<path d="M1 15.5C1 8.66463 1 5.24695 3.1967 3.12348C5.3934 1 8.92893 1 16 1C23.0711 1 26.6066 1 28.8033 3.12348C31 5.24695 31 8.66463 31 15.5C31 22.3354 31 25.7531 28.8033 27.8765C26.6066 30 23.0711 30 16 30C8.92893 30 5.3934 30 3.1967 27.8765C1 25.7531 1 22.3354 1 15.5Z" stroke="currentColor" stroke-width="2"/>
</svg>
