<svg width="32" height="32" viewBox="0 0 32 32" fill="none" xmlns="http://www.w3.org/2000/svg">
<path d="M5.33337 22.6663L10.5896 17.9357C11.3803 17.2241 12.5896 17.2559 13.3418 18.0081L15.3334 19.9997L20.5858 14.7472C21.3669 13.9662 22.6332 13.9662 23.4143 14.7472L26.6667 17.9997M14.6667 11.9997C14.6667 12.7361 14.0698 13.333 13.3334 13.333C12.597 13.333 12 12.7361 12 11.9997C12 11.2633 12.597 10.6663 13.3334 10.6663C14.0698 10.6663 14.6667 11.2633 14.6667 11.9997ZM7.33338 26.6663H24.6667C25.7713 26.6663 26.6667 25.7709 26.6667 24.6663V7.33301C26.6667 6.22844 25.7713 5.33301 24.6667 5.33301H7.33337C6.2288 5.33301 5.33337 6.22844 5.33337 7.33301V24.6663C5.33337 25.7709 6.22881 26.6663 7.33338 26.6663Z" stroke="currentColor" stroke-width="1.4" stroke-linecap="round" stroke-linejoin="round"/>
</svg>
