<svg width="38" height="37" viewBox="0 0 38 37" fill="none" xmlns="http://www.w3.org/2000/svg">
<path d="M19 0C15.2422 0 11.5687 1.08501 8.44417 3.11781C5.31964 5.15062 2.88436 8.03992 1.4463 11.4204C0.00823243 14.8008 -0.368031 18.5205 0.365088 22.1092C1.09821 25.6978 2.90778 28.9942 5.56498 31.5815C8.22218 34.1687 11.6077 35.9307 15.2933 36.6445C18.9789 37.3583 22.7992 36.992 26.271 35.5918C29.7428 34.1915 32.7102 31.8204 34.7979 28.778C36.8857 25.7357 38 22.1589 38 18.5C37.9944 13.5952 35.9908 8.89278 32.4289 5.42453C28.8669 1.95629 24.0374 0.00544075 19 0ZM10.4799 30.2458C11.46 28.941 12.7423 27.8797 14.2227 27.1481C15.7031 26.4165 17.3398 26.0352 19 26.0352C20.6602 26.0352 22.2969 26.4165 23.7773 27.1481C25.2578 27.8797 26.5401 28.941 27.5201 30.2458C25.03 31.9652 22.0527 32.8888 19 32.8888C15.9473 32.8888 12.97 31.9652 10.4799 30.2458ZM14.0741 17.1296C14.0741 16.181 14.363 15.2537 14.9042 14.4649C15.4455 13.6762 16.2148 13.0614 17.1149 12.6984C18.015 12.3354 19.0055 12.2404 19.961 12.4255C20.9165 12.6106 21.7943 13.0674 22.4832 13.7381C23.1721 14.4089 23.6412 15.2635 23.8313 16.1939C24.0213 17.1243 23.9238 18.0887 23.551 18.9651C23.1781 19.8415 22.5468 20.5906 21.7367 21.1176C20.9266 21.6446 19.9743 21.9259 19 21.9259C17.6936 21.9259 16.4406 21.4206 15.5169 20.5211C14.5931 19.6216 14.0741 18.4017 14.0741 17.1296ZM30.6111 27.3971C29.2428 25.7025 27.4987 24.3311 25.5093 23.3854C26.7771 22.1352 27.637 20.5479 27.9807 18.8231C28.3244 17.0983 28.1365 15.3131 27.4407 13.692C26.745 12.0709 25.5724 10.6864 24.0705 9.7126C22.5686 8.73879 20.8044 8.2192 19 8.2192C17.1956 8.2192 15.4314 8.73879 13.9295 9.7126C12.4276 10.6864 11.255 12.0709 10.5593 13.692C9.8635 15.3131 9.67564 17.0983 10.0193 18.8231C10.363 20.5479 11.2229 22.1352 12.4907 23.3854C10.5013 24.3311 8.75723 25.7025 7.3889 27.3971C5.67018 25.2757 4.59967 22.726 4.2999 20.0397C4.00014 17.3535 4.48324 14.6394 5.6939 12.2081C6.90456 9.77673 8.79386 7.72645 11.1455 6.29191C13.4972 4.85737 16.2162 4.09656 18.9912 4.09656C21.7663 4.09656 24.4852 4.85737 26.8369 6.29191C29.1886 7.72645 31.0779 9.77673 32.2885 12.2081C33.4992 14.6394 33.9823 17.3535 33.6825 20.0397C33.3827 22.726 32.3122 25.2757 30.5935 27.3971H30.6111Z" fill="currentColor"/>
</svg>
