<svg width="18" height="18" viewBox="0 0 18 18" fill="none" xmlns="http://www.w3.org/2000/svg">
<path fill-rule="evenodd" clip-rule="evenodd" d="M17.9337 6.84888C17.5671 5.28943 15.9398 5.2089 14.6317 5.14353C13.8086 5.10184 12.957 5.06016 12.6008 4.69161C12.2381 4.31644 11.9548 3.59735 11.6792 2.90194C11.1421 1.54145 10.5331 0 8.99951 0C7.46691 0 6.85882 1.54145 6.3208 2.90194C6.04611 3.59735 5.76194 4.31644 5.4001 4.69161C5.043 5.06016 4.19145 5.10184 3.36831 5.14353C2.0602 5.2089 0.432874 5.28943 0.0662997 6.84888C-0.28133 8.32876 0.805132 9.22407 1.76372 10.0142C2.4192 10.5542 3.03868 11.0658 3.17603 11.6911C3.30958 12.2984 3.10877 13.0829 2.91459 13.8427C2.58117 15.1492 2.20228 16.6291 3.46682 17.5831C3.86181 17.8816 4.26249 18 4.65843 18C5.51566 18 6.35111 17.4467 7.06623 16.973C7.72834 16.5353 8.41318 16.0815 8.99951 16.0815C9.58584 16.0815 10.2716 16.5353 10.9328 16.973C11.9795 17.6656 13.281 18.5258 14.5341 17.5831C15.7987 16.6291 15.4198 15.1483 15.0854 13.8408C14.8912 13.082 14.6914 12.2975 14.824 11.6911C14.9613 11.0658 15.5808 10.5552 16.2363 10.0142C17.1949 9.22407 18.2813 8.32876 17.9337 6.84888Z" fill="#FFC107"/>
</svg>
