<svg width="26" height="26" viewBox="0 0 26 26" fill="none" xmlns="http://www.w3.org/2000/svg">
<g clip-path="url(#clip0_827_9358)">
<mask id="mask0_827_9358" style="mask-type:luminance" maskUnits="userSpaceOnUse" x="0" y="0" width="26" height="26">
<path d="M0 -4.76837e-07H26V26H0V-4.76837e-07Z" fill="white"/>
</mask>
<g mask="url(#mask0_827_9358)">
<path d="M2.53111 24.5C1.21459 24.5 0.634233 23.5625 1.24032 22.417L12.3965 1.35916C13.0025 0.213612 13.996 0.213612 14.6028 1.35916L25.759 22.417C26.3665 23.5625 25.7854 24.5 24.4682 24.5H2.53111Z" fill="#FFCC4D"/>
<path d="M12.116 9.70088C12.116 8.95916 12.7119 8.5 13.5 8.5C14.2695 8.5 14.8847 8.97682 14.8847 9.70088V16.5017C14.8847 17.2257 14.2695 17.7025 13.5 17.7025C12.7119 17.7025 12.116 17.2428 12.116 16.5017V9.70088ZM12 20.122C12.0007 19.7567 12.1589 19.4066 12.4401 19.1484C12.7213 18.8902 13.1024 18.7449 13.5 18.7445C13.8976 18.7449 14.2787 18.8902 14.5599 19.1484C14.8411 19.4066 14.9993 19.7567 15 20.122C14.9995 20.4873 14.8413 20.8375 14.5601 21.0959C14.2789 21.3542 13.8977 21.4995 13.5 21.5C13.1023 21.4995 12.7211 21.3542 12.4399 21.0959C12.1587 20.8375 12.0005 20.4873 12 20.122Z" fill="#231F20"/>
</g>
</g>
<defs>
<clipPath id="clip0_827_9358">
<rect width="26" height="26" fill="white"/>
</clipPath>
</defs>
</svg>
